<?xml version="1.0" encoding="utf-8"?>
<!-- Generator: Adobe Illustrator 22.1.0, SVG Export Plug-In . SVG Version: 6.00 Build 0)  -->
<svg version="1.1" id="레이어_1" xmlns="http://www.w3.org/2000/svg" xmlns:xlink="http://www.w3.org/1999/xlink" x="0px"
	 y="0px" viewBox="0 0 180 70" style="enable-background:new 0 0 180 70;" xml:space="preserve">
<style type="text/css">
	.st0{opacity:0.7;fill:url(#SVGID_1_);}
	.st1{opacity:0.7;fill:url(#SVGID_2_);}
	.st2{opacity:0.7;fill:url(#SVGID_3_);}
	.st3{opacity:0.7;}
	.st4{fill:url(#SVGID_4_);}
	.st5{fill:url(#SVGID_5_);}
	.st6{fill:url(#SVGID_6_);}
	.st7{fill:url(#SVGID_7_);}
</style>
<g>
	
		<image style="overflow:visible;opacity:0.36;" width="148" height="42" xlink:href="2442643D.png"  transform="matrix(1 0 0 1 14.9795 16.9795)">
	</image>
	<g>
		<g>
			<linearGradient id="SVGID_1_" gradientUnits="userSpaceOnUse" x1="16.5391" y1="35.2432" x2="28.8903" y2="35.2432">
				<stop  offset="0" style="stop-color:#FFFFFF"/>
				<stop  offset="0.3639" style="stop-color:#F5F5F5"/>
				<stop  offset="0.401" style="stop-color:#FFFFFF"/>
				<stop  offset="1" style="stop-color:#FFFFFF"/>
			</linearGradient>
			<path class="st0" d="M26.1,30c0,0-0.5,0.5-0.7,1.5c-0.2,1-0.5,3.5-2,5c-1.5,1.5-2,1.5-2.8,1.5c-0.8,0-1.6,0.1-1.8,0.2
				c-0.2,0.1-0.8,0.3-1,0.3s-1.1-0.2-1.2,0.1c-0.1,0.3,0.1,0.8,0.5,1.1c0.3,0.3,0.7,0.6,1.2,0.7c0.5,0,1,0.2,1.4,0.1
				c0.4-0.1,0.8-0.5,1.1-0.4c0.3,0,1.5-0.3,2.1-0.5c0.5-0.3,1.2-0.5,1.8-0.6c0.7-0.1,1.5-0.8,2-1.2c0.6-0.4,1.2-1,1.3-1.5
				c0-0.6-0.1-1.1,0.3-1.7c0.3-0.6,0.5-1.1,0.5-1.5c0.1-0.4,0.4-1.3-0.1-1.8c-0.5-0.5-0.9-1.1-1.3-1.2C26.9,30,26.5,29.8,26.1,30z"
				/>
			<linearGradient id="SVGID_2_" gradientUnits="userSpaceOnUse" x1="78.2557" y1="35.5682" x2="88.4665" y2="35.5682">
				<stop  offset="0" style="stop-color:#FFFFFF"/>
				<stop  offset="0.3639" style="stop-color:#F5F5F5"/>
				<stop  offset="0.401" style="stop-color:#FFFFFF"/>
				<stop  offset="1" style="stop-color:#FFFFFF"/>
			</linearGradient>
			<path class="st1" d="M88.5,36c-0.1-0.6-0.5-1.8-0.5-2.3c0-0.5-0.6-1-1-1.4c-0.3-0.3-1-0.6-1.5-0.9c-0.5-0.3-0.8-0.6-1.3-0.7
				c-0.5-0.1-1.2,0-1.2,0s-0.4,0.3-0.7,0.3c-0.3,0-1,0-1.7,0.2c-0.6,0.3-2.3,1-2.4,2.8c-0.1,1.8,0.7,3.9,1.2,4.7
				c0.5,0.8,0.7,1.2,1.4,1.4c0.8,0.1,0.7,0.1,1.3,0.3c0.7,0.1,0.4,0.3,1.3,0.1c0.9-0.2,1.7-0.7,2.5-1c0.7-0.4,1.3-1,1.7-1.6
				C88.1,37.2,88.5,36.6,88.5,36z M86.4,36.5c-0.2,0.5-0.7,1.1-1.2,1.5c-0.5,0.4-1.3,0.6-1.9,0.5c-0.6-0.1-0.7,0-0.9,0
				c-0.2,0-1.3-1-1.4-1.5c-0.1-0.5,0.1-1,0.3-1.4c0.2-0.4,0.2-0.7,0.5-1.1c0.3-0.4,0.3-0.8,0.5-1.3c0.2-0.5,1-0.9,1-0.9
				c0.5,0,0.9,0.3,1.7,0.3c0.8,0,0.5,0.2,1.1,0.3c0.6,0.1,0.5,1,0.6,1.9C86.9,35.8,86.6,36,86.4,36.5z"/>
			<linearGradient id="SVGID_3_" gradientUnits="userSpaceOnUse" x1="23.8345" y1="23.4184" x2="33.5114" y2="23.4184">
				<stop  offset="0" style="stop-color:#FFFFFF"/>
				<stop  offset="0.3639" style="stop-color:#F5F5F5"/>
				<stop  offset="0.401" style="stop-color:#FFFFFF"/>
				<stop  offset="1" style="stop-color:#FFFFFF"/>
			</linearGradient>
			<path class="st2" d="M33.2,22.1c-0.3-0.7-0.8-1.7-1.5-2.7c-0.7-1-2.2-1.1-2.7-1c-0.5,0.1-1.4,0.1-2.2,0.3
				c-0.8,0.2-2.1,1.2-2.5,1.8c-0.4,0.6-0.3,2.8-0.4,3.2c0,0.4,0.1,1.3,0.3,1.6c0.2,0.3,0.6,1,0.9,1.3c0.3,0.3,0.9,0.5,1.1,0.8
				c0.2,0.3,1,0.6,1,0.6c1,0.6,1.9,0,2.5,0c0.6-0.1,1.2-0.4,1.7-0.7c0.5-0.3,1.3-0.9,1.9-1.6C33.7,25.1,33.5,22.8,33.2,22.1z
				 M31.1,24.4c-0.2,0.6-0.2,1-0.6,1.4c-0.4,0.4-0.5,0.4-1.3,0.6c-0.8,0.2-0.8,0.3-1.5,0.2c-0.8-0.1-1.5-0.2-1.7-0.3
				c-0.2,0-0.5-0.5-0.5-0.5s-0.8-1-0.7-1.9c0.1-0.9-0.2-1.1,0.2-1.8c0.4-0.7,0.4-1.3,1-1.5c0.5-0.2,0.7-0.1,1.6-0.1
				c1,0,1.4-0.4,2,0.2c0.6,0.7,0.7,0.6,1,1.5C31,23.2,31.3,23.8,31.1,24.4z"/>
			<g class="st3">
				<linearGradient id="SVGID_4_" gradientUnits="userSpaceOnUse" x1="34.3277" y1="39.0883" x2="80.5617" y2="39.0883">
					<stop  offset="0" style="stop-color:#FFFFFF"/>
					<stop  offset="0.3639" style="stop-color:#F5F5F5"/>
					<stop  offset="0.401" style="stop-color:#FFFFFF"/>
					<stop  offset="1" style="stop-color:#FFFFFF"/>
				</linearGradient>
				<path class="st4" d="M36.3,25.3c0,0-1.1,0-1.6,0.5c-0.5,0.5-0.4,1-0.2,1.5c0.2,0.5,0.3,1.1,0.7,1.2c0.4,0.1,1.3,0.1,1.6,0.4
					c0.3,0.3,1.1,0.3,1.5,0.5c0.3,0.2,1.2,0.3,1.4,1c0.2,0.7,0.5,1.5,0.1,2.2c-0.4,0.7-1,1.5-1.5,1.9c-0.5,0.4-1.8,1.4-1.9,1.8
					c-0.1,0.4-0.5,2.1,0.4,2c0.9-0.1,1.6-0.2,2.2-0.6c0.6-0.4,1-0.9,1.4-1c0.4-0.1,1-1,1.5-1.6c0.5-0.6,1.1-1.4,1.9-1.6
					c0.8-0.2,3.6-0.9,4.7-0.9c1.1,0,1.3,0.1,1.7,0.2c0.5,0.1,1.4,0.5,1.5,1c0,0.5,0,1.3-0.3,2c-0.3,0.7-1.1,2-0.8,2.6
					c0.3,0.6,0.8,0.9,1.6,0.9c0.8,0,1.7-0.2,2.2-0.1c0.5,0,1.6,0,2.1-0.1c0.5,0,1.2-0.4,1.5-0.3c0.3,0.1,0.9,0,1.4-0.1
					c0.5-0.1,1.2-0.3,1.9-0.3c0.7,0,1.7-0.2,2.6-0.2c0.9,0,2,0,2,0s-0.3,2.6-0.4,3.5c-0.1,0.9-0.3,2.5-0.6,3c-0.3,0.5-1,2.1-1.2,2.7
					c-0.2,0.6-1.1,2.4-1.5,2.9c-0.3,0.5-1,1.1-1.5,1.7c-0.6,0.7-0.9,0.7-1.5,1.3c-0.6,0.5-0.9,0.8-1.2,1.2c-0.3,0.4-1,1-1.3,1.2
					c-0.4,0.2-1.4,0.3-1.7,0.4c-0.2,0.1-0.7,0.9-0.4,1c0.3,0.1,1-0.4,1.5-0.7c0.5-0.2,1.8-1,2.8-1.3c1-0.4,2.1-1.1,2.6-1.5
					c0.5-0.4,2-1,2.6-1.6c0.6-0.6,1.3-2.1,1.8-3.2c0.5-1.1,1-2.9,1.2-3.8c0.2-0.9,0.6-2.3,0.6-2.7c0-0.3,0.2-2,0.5-2.2
					c0.3-0.2,0.5-0.8,0.6-1c0.2-0.2,0.3-0.8,0.7-0.7c0.3,0.1,1.3,0.2,1.7,0.3c0.4,0.1,1.2,0.3,1.7,0.3c0.5,0,0.9-0.3,1.2-0.3
					c0.3,0,1-0.3,0.4-1.2c-0.5-0.8-1.3-0.7-1.9-0.6c-0.6,0.1-1.1,0-1.5-0.1c-0.4-0.1-1-0.4-1.2-0.4c-0.2,0-0.8-0.1-0.8-0.1
					s0.5-2.2,0.7-3.2c0.2-1,1.4-3.5,1.8-4c0.5-0.5,0.8-0.8,1-1.2c0.2-0.4,0.7-1.3,1-1.3c0.3,0,1.2-0.2,1.2,0.3
					c0.1,0.5,0.3,1,1.1,1.5c0.8,0.4,1.7,0.3,2.5,0c0.7-0.2,1-0.8,1.4-1.3c0.4-0.5,0.8-1,0.7-1.8c-0.1-0.8-1.7-3.4-2.1-3.7
					c-0.3-0.3-1-0.5-1.5-0.4c-0.5,0.1-1.3,0.2-1.5,0.2c-0.3,0-1.2-0.4-1.9,0.3c-0.8,0.7-1,1.8-1.3,2c-0.4,0.3-1.7,0.6-2.6,1.5
					c-0.9,0.9-1.6,1.5-2,2.3c-0.3,0.8-1,3.8-1.2,5c-0.1,1.2-0.5,3-0.7,3.2c-0.2,0.3-1.5,0.3-2.7,0.3c-1.2,0-1.4-0.1-2.2,0.2
					c-0.8,0.4-1.5,0.7-2.3,0.7c-0.8,0-1.2-0.2-1.8-0.2c-0.6,0-1.2,0-1.5,0c-0.3-0.1-1.3-0.3-1-1c0.3-0.7,0.6-2.7,0.3-3.4
					c-0.3-0.7-0.5-1.3-1.3-1.5c-0.7-0.2-1.1-0.4-1.6-0.7c-0.5-0.3-0.6-0.3-1.3-0.4c-0.7,0-1.6-0.3-2.3-0.3c-0.7,0-2.1,0.3-3,0.5
					c-0.8,0.3-1.6,0.3-2,0.4c-0.4,0.1-1.1,0-1.3,0c-0.2-0.1-0.8-0.7-1-1c-0.2-0.3-0.4-0.4-0.7-0.7c-0.4-0.2-1-1-1.2-1.4
					c-0.2-0.4-0.4-0.9-0.9-1.1C37.5,25.9,36.3,25.3,36.3,25.3z"/>
			</g>
			<g>
				<linearGradient id="SVGID_5_" gradientUnits="userSpaceOnUse" x1="94.1558" y1="31.8472" x2="112.848" y2="31.8472">
					<stop  offset="0" style="stop-color:#FFFFFF"/>
					<stop  offset="0.3639" style="stop-color:#F5F5F5"/>
					<stop  offset="0.401" style="stop-color:#FFFFFF"/>
					<stop  offset="1" style="stop-color:#FFFFFF"/>
				</linearGradient>
				<path class="st5" d="M112.8,42.3c-0.9,0.5-2,0.9-3.1,1.2s-2.5,0.4-3.9,0.4c-3.8,0-6.7-1-8.7-3.1c-1.9-2.1-2.9-5-2.9-8.7
					c0-3.9,1-6.9,2.9-9.1c1.9-2.1,4.8-3.2,8.7-3.2c0.9,0,1.7,0,2.4,0.1c0.7,0.1,1.3,0.2,1.8,0.4c0.5,0.1,1,0.3,1.5,0.5
					c0.5,0.2,0.9,0.4,1.5,0.7l-1.1,3.8c-1-0.5-1.9-0.9-2.9-1.1c-0.9-0.3-1.9-0.4-3-0.4c-2.2,0-3.9,0.8-5,2.3s-1.7,3.5-1.7,6.1
					s0.6,4.5,1.9,5.9c1.2,1.4,2.8,2.1,4.7,2.1c0.9,0,1.9-0.1,3-0.4c1.1-0.2,2.1-0.6,3-1.1L112.8,42.3z"/>
				<linearGradient id="SVGID_6_" gradientUnits="userSpaceOnUse" x1="117.0745" y1="31.8476" x2="140.4806" y2="31.8476">
					<stop  offset="0" style="stop-color:#FFFFFF"/>
					<stop  offset="0.3639" style="stop-color:#F5F5F5"/>
					<stop  offset="0.401" style="stop-color:#FFFFFF"/>
					<stop  offset="1" style="stop-color:#FFFFFF"/>
				</linearGradient>
				<path class="st6" d="M121.9,20.3l6.9,15.1l6.9-15.1h4.8v23.1h-4.7V29.9l-5.4,11.4h-3.2l-5.4-11.4v13.5h-4.7V20.3H121.9z"/>
				<linearGradient id="SVGID_7_" gradientUnits="userSpaceOnUse" x1="144.7057" y1="31.8472" x2="162" y2="31.8472">
					<stop  offset="0" style="stop-color:#FFFFFF"/>
					<stop  offset="0.3639" style="stop-color:#F5F5F5"/>
					<stop  offset="0.401" style="stop-color:#FFFFFF"/>
					<stop  offset="1" style="stop-color:#FFFFFF"/>
				</linearGradient>
				<path class="st7" d="M156,39c0.6-0.6,0.9-1.4,0.9-2.2c0-0.4-0.1-0.7-0.2-1c-0.2-0.3-0.3-0.5-0.6-0.7c-0.2-0.2-0.5-0.3-0.7-0.4
					c-0.3-0.1-0.5-0.2-0.8-0.3c-0.5-0.2-0.9-0.3-1.2-0.4c-0.3-0.1-0.7-0.3-1-0.4c-0.3-0.1-0.7-0.3-1.1-0.4c-0.4-0.1-0.9-0.3-1.5-0.5
					c-1.7-0.6-3-1.3-3.8-2.2c-0.8-0.9-1.3-2.2-1.3-3.9c0-1.2,0.2-2.2,0.7-3c0.5-0.8,1.1-1.5,1.9-2.1c0.8-0.5,1.7-0.9,2.8-1.2
					s2.2-0.4,3.4-0.4c1.1,0,2.3,0.2,3.5,0.5c1.3,0.3,2.6,0.8,3.9,1.3l-1.1,3.8c-1.5-0.6-2.7-1-3.6-1.3c-0.9-0.3-1.8-0.4-2.7-0.4
					c-1.3,0-2.2,0.3-2.8,0.8c-0.6,0.5-0.9,1.2-0.9,2c0,0.6,0.2,1,0.6,1.4c0.4,0.3,0.9,0.6,1.6,0.9c0.5,0.2,0.9,0.4,1.3,0.5
					c0.4,0.1,0.8,0.3,1.1,0.4c0.3,0.1,0.7,0.3,1,0.4c0.3,0.1,0.7,0.3,1.2,0.4c0.7,0.3,1.4,0.6,2.1,0.9c0.6,0.3,1.2,0.7,1.7,1.2
					c0.5,0.5,0.9,1.1,1.2,1.7c0.3,0.7,0.4,1.5,0.4,2.4c0,2.2-0.7,4-2.2,5.3c-1.5,1.3-3.8,1.9-6.9,1.9c-1.3,0-2.7-0.2-4.1-0.6
					c-1.4-0.4-2.8-0.9-4.2-1.7l1.6-3.9c0.6,0.3,1.2,0.6,1.7,0.8c0.6,0.2,1.1,0.5,1.6,0.7c0.5,0.2,1,0.4,1.6,0.5
					c0.5,0.1,1.1,0.2,1.7,0.2C154.4,40,155.4,39.6,156,39z"/>
			</g>
		</g>
	</g>
</g>
</svg>
